<?xml version="1.0" encoding="UTF-8"?>
<svg width="2500px" height="2500px" viewBox="0 0 2500 2500" version="1.1" xmlns="http://www.w3.org/2000/svg" xmlns:xlink="http://www.w3.org/1999/xlink">
    <!-- Generator: Sketch 46.2 (44496) - http://www.bohemiancoding.com/sketch -->
    <title>Group 2 + Group 5 + Group 3 + Group 4 Mask</title>
    <desc>Created with Sketch.</desc>
    <defs>
        <rect id="path-1" x="0" y="0" width="2400" height="2400" rx="160"></rect>
        <filter x="-3.1%" y="-3.1%" width="106.2%" height="106.2%" filterUnits="objectBoundingBox" id="filter-3">
            <feOffset dx="0" dy="0" in="SourceAlpha" result="shadowOffsetOuter1"></feOffset>
            <feGaussianBlur stdDeviation="25" in="shadowOffsetOuter1" result="shadowBlurOuter1"></feGaussianBlur>
            <feColorMatrix values="0 0 0 0 0   0 0 0 0 0   0 0 0 0 0  0 0 0 0.5 0" type="matrix" in="shadowBlurOuter1"></feColorMatrix>
        </filter>
    </defs>
    <g id="Page-1" stroke="none" stroke-width="1" fill="none" fill-rule="evenodd">
        <g id="Group-6-Copy-4" transform="translate(-2250.000000, -2250.000000)">
            <g id="Group-2-+-Group-5-+-Group-3-+-Group-4-Mask" transform="translate(2300.000000, 2300.000000)">
                <mask id="mask-2" fill="white">
                    <use xlink:href="#path-1"></use>
                </mask>
                <g id="Mask" fill-opacity="1" fill="black">
                    <use filter="url(#filter-3)" xlink:href="#path-1"></use>
                </g>
                <g id="Group-2" mask="url(#mask-2)">
                    <g transform="translate(0.000000, -2.000000)">
                        <rect id="Rectangle-5" fill="#BBE6E6" x="0" y="0" width="1200" height="1200"></rect>
                        <g id="Group" stroke-width="1" fill="none" transform="translate(332.000000, 250.000000)">
                            <path d="M188.776497,184.176949 C182.373596,172.398191 177.037846,162.761025 177.037846,152.053063 C175.970696,132.778731 184.507896,116.716788 199.447997,106.008825 C226.126749,86.7344935 253.872651,71.7433465 288.021454,84.5929011 C292.290054,86.7344935 294.424354,85.6636973 296.558654,81.3805125 C314.700206,52.4690146 340.311808,31.0530903 368.05771,11.7787584 C378.72921,4.28318487 389.400711,0 402.206512,0 C407.542263,0 410.743713,1.07079622 411.810863,7.49557352 C412.878013,12.8495546 410.743713,16.0619432 405.407962,18.2035357 C369.12486,32.1238865 342.446108,59.9645881 318.968806,89.9468822 C316.834506,93.1592708 311.498756,96.3716595 317.901656,100.654844 C344.580408,119.929176 348.849008,147.769878 345.647558,178.822968 C344.580408,190.601727 345.647558,193.814115 358.453359,193.814115 C372.32631,193.814115 384.064961,198.0973 393.669312,208.805262 C395.803612,212.017651 397.937912,213.088447 403.273662,212.017651 C422.482364,206.66367 441.691065,209.876058 459.832616,216.300836 C473.705567,220.584021 484.377068,230.221187 488.645668,245.212334 C489.712819,250.566315 492.914269,251.637111 497.182869,252.707907 C529.197371,262.345073 543.070322,289.114978 530.264522,320.168069 C528.130221,325.52205 528.130221,330.876031 530.264522,336.230012 C539.868872,359.787529 533.465972,380.132657 520.660171,400.477785 C517.458721,404.76097 517.458721,409.044155 516.391571,413.32734 C515.32442,428.318487 504.65292,444.38043 489.712819,447.592818 C477.974168,449.734411 477.974168,456.159188 475.839868,464.725558 C466.235517,531.114923 456.631166,596.433493 439.556765,661.752062 C428.885264,701.371522 428.885264,700.300726 388.333561,698.159133 C345.647558,696.017541 302.961555,696.017541 260.275552,696.017541 C214.388098,696.017541 169.567795,684.238782 122.613192,682.09719 C117.277441,682.09719 115.143141,678.884801 113.008841,674.601616 C102.33734,658.539673 95.9344397,640.336137 95.9344397,621.061806 C98.0687399,571.80518 86.330089,523.61935 82.0614887,474.362724 C79.9271886,457.229984 79.9271886,443.309634 56.4498868,440.097245 C39.3754856,437.955653 30.838285,421.893709 25.5025346,405.831766 C23.3682344,397.265396 19.0996341,389.769823 13.7638837,382.274249 C-5.44481768,354.433548 -4.3776676,334.08842 15.8981839,307.318514 C24.4353845,296.610552 31.9054351,284.831794 35.1068853,269.840647 C40.4426357,241.999945 60.7184872,232.362779 86.330089,229.15039 C94.8672897,228.079594 101.27019,224.867205 107.673091,218.442428 C130.083242,194.884911 155.694844,183.106153 188.776497,184.176949 Z" id="Shape" fill="#578282" fill-rule="nonzero"></path>
                            <path d="M237.259889,199.600606 C216.989538,195.315361 204.187211,183.530936 195.652326,166.389954 C187.117441,149.248973 188.184302,134.250614 202.05349,121.394878 C236.193029,89.2555371 270.332568,81.7563576 309.80641,107.46783 C324.742458,117.109632 333.277343,131.03668 334.344203,149.248973 C335.411064,168.532577 335.411064,186.74487 324.742458,204.957163 C338.611646,204.957163 350.347112,202.81454 363.149439,204.957163 C373.818045,207.099786 383.419791,210.31372 388.754094,219.955522 C393.021536,227.454701 399.4227,227.454701 406.890724,225.312079 C427.161075,217.812899 447.431426,222.098145 465.568056,231.739947 C473.036081,236.025192 477.303523,243.524372 477.303523,252.094862 C476.236662,260.665353 480.504105,261.736665 487.972129,262.807976 C518.911086,267.093221 530.646553,289.59076 516.777365,317.444855 C513.576783,322.801412 512.509923,327.086657 516.777365,333.514525 C526.37911,350.655507 524.245389,368.8678 514.643644,384.93747 C508.24248,394.579272 497.573874,398.864517 503.975038,413.862876 C507.17562,422.433367 491.172711,434.217792 479.437244,433.146481 C468.768638,432.075169 467.701778,436.360415 466.634917,444.930906 C458.100032,514.566143 446.364566,584.201381 429.294796,651.693996 C421.826772,682.762025 420.759912,682.762025 389.820954,681.690714 C340.745367,679.548091 291.66978,681.690714 242.594192,679.548091 C212.722096,678.47678 183.91686,670.977601 155.111623,668.834978 C152.977902,668.834978 150.844181,667.763667 148.71046,667.763667 C125.239527,665.621044 123.105806,663.478421 116.704642,639.909571 C111.370339,621.697278 113.50406,602.413674 113.50406,584.201381 C111.370339,543.49155 101.768594,504.924341 98.568012,464.21451 C97.5011514,455.644019 97.5011514,446.002217 97.5011514,437.431726 C97.5011514,432.075169 95.3674302,431.003858 90.0331272,429.932547 C55.8935882,427.789924 51.6261458,424.57599 39.8906793,390.294027 C36.6900975,381.723536 30.2889339,374.224356 24.954631,366.725177 C15.3528856,350.655507 15.3528856,334.585836 27.0883522,320.658789 C38.8238187,305.66043 49.4924246,289.59076 53.759867,270.307155 C58.0273094,247.809617 77.2308001,244.595683 96.4342908,241.381749 C107.102897,240.310438 113.50406,236.025192 119.905224,229.597324 C139.108715,208.171097 162.579648,196.386672 192.451744,199.600606 C198.852908,200.671918 204.187211,200.671918 209.521514,204.957163 C218.056399,212.456342 226.591283,207.099786 237.259889,199.600606 Z" id="Shape" fill="#FFFFFF" fill-rule="nonzero"></path>
                            <path d="M237.259889,199.600606 C216.989538,195.315361 204.187211,183.530936 195.652326,166.389954 C187.117441,149.248973 188.184302,134.250614 202.05349,121.394878 C236.193029,89.2555371 270.332568,81.7563576 309.80641,107.46783 C324.742458,117.109632 333.277343,131.03668 334.344203,149.248973 C335.411064,168.532577 335.411064,186.74487 324.742458,204.957163 C338.611646,204.957163 350.347112,202.81454 363.149439,204.957163 C373.818045,207.099786 383.419791,210.31372 388.754094,219.955522 C393.021536,227.454701 399.4227,227.454701 406.890724,225.312079 C427.161075,217.812899 447.431426,222.098145 465.568056,231.739947 C473.036081,236.025192 477.303523,243.524372 477.303523,252.094862 C476.236662,260.665353 480.504105,261.736665 487.972129,262.807976 C518.911086,267.093221 530.646553,289.59076 516.777365,317.444855 C513.576783,322.801412 512.509923,327.086657 516.777365,333.514525 C526.37911,350.655507 524.245389,368.8678 514.643644,384.93747 C508.24248,394.579272 497.573874,398.864517 503.975038,413.862876 C507.17562,422.433367 491.172711,434.217792 479.437244,433.146481 C468.768638,432.075169 467.701778,436.360415 466.634917,444.930906 C458.100032,514.566143 446.364566,584.201381 429.294796,651.693996 C421.826772,682.762025 420.759912,682.762025 389.820954,681.690714 C340.745367,679.548091 291.66978,681.690714 242.594192,679.548091 C212.722096,678.47678 183.91686,670.977601 155.111623,668.834978 C152.977902,668.834978 150.844181,667.763667 148.71046,667.763667 C125.239527,665.621044 123.105806,663.478421 116.704642,639.909571 C111.370339,621.697278 113.50406,602.413674 113.50406,584.201381 C111.370339,543.49155 101.768594,504.924341 98.568012,464.21451 C97.5011514,455.644019 97.5011514,446.002217 97.5011514,437.431726 C97.5011514,432.075169 95.3674302,431.003858 90.0331272,429.932547 C55.8935882,427.789924 51.6261458,424.57599 39.8906793,390.294027 C36.6900975,381.723536 30.2889339,374.224356 24.954631,366.725177 C15.3528856,350.655507 15.3528856,334.585836 27.0883522,320.658789 C38.8238187,305.66043 49.4924246,289.59076 53.759867,270.307155 C58.0273094,247.809617 77.2308001,244.595683 96.4342908,241.381749 C107.102897,240.310438 113.50406,236.025192 119.905224,229.597324 C139.108715,208.171097 162.579648,196.386672 192.451744,199.600606 C198.852908,200.671918 204.187211,200.671918 209.521514,204.957163 C218.056399,212.456342 226.591283,207.099786 237.259889,199.600606 Z" id="Shape" fill="#E3FFFF" fill-rule="nonzero"></path>
                        </g>
                    </g>
                </g>
                <g id="Group-5" mask="url(#mask-2)">
                    <g transform="translate(1199.000000, -3.000000)">
                        <rect id="Rectangle-5" fill="#FEB267" x="0" y="0" width="1200" height="1200"></rect>
                        <g id="Group" stroke-width="1" fill="none" transform="translate(304.000000, 349.000000)">
                            <path d="M244.300575,44.0669747 C240.028621,39.7677577 237.892644,37.6181491 235.756667,36.5433449 C229.348737,32.2441278 224.008795,27.9449108 228.280748,19.3464767 C232.552702,9.67323835 237.892644,3.22441278 250.708505,7.52362983 C259.252413,10.7480426 266.728332,16.1220639 273.136262,20.421281 C274.204251,19.3464767 275.272239,19.3464767 275.272239,18.2716724 C276.340227,11.8228469 274.204251,4.29921705 281.680169,1.07480426 C289.156088,-1.07480426 294.496031,5.37402131 299.835973,9.67323835 C306.243903,15.0472597 306.243903,23.6456937 309.447868,31.1693236 C314.787811,25.7953023 319.059764,19.3464767 324.399706,15.0472597 C329.739648,10.7480426 334.011602,5.37402131 341.487521,4.29921705 C344.691486,3.22441278 350.031428,3.22441278 352.167405,6.44882557 C355.371371,9.67323835 353.235394,13.9724554 351.099417,17.1968682 C347.895452,22.5708895 344.691486,27.9449108 340.419533,34.3937364 C366.051255,33.3189321 390.614988,33.3189321 415.178722,38.6929534 C453.626305,47.2913875 486.733946,66.6378642 512.365668,96.7323835 C565.76509,161.220639 594.600777,236.456937 591.396812,320.29167 C589.260835,379.405904 572.17302,436.37053 542.269344,487.961135 C521.977564,521.280067 495.277854,547.075369 454.694294,552.44939 C434.402514,554.598999 414.110734,552.44939 394.886942,547.075369 C368.187232,539.551739 342.55551,541.701348 316.923787,549.224978 C173.813339,595.441561 36.0428326,511.606828 5.0711684,363.28384 C-15.2206116,265.476653 37.110821,134.350533 117.209953,82.7599281 C156.725524,58.0394301 198.377073,47.2913875 244.300575,44.0669747 Z" id="Shape" fill="#9A4E03" fill-rule="nonzero"></path>
                            <path d="M211.196739,542.776152 C170.613179,539.551739 133.233585,524.50448 102.26192,498.709177 C53.134453,457.866615 26.4347424,403.051598 17.8908351,339.638147 C16.8228466,321.366474 16.8228466,304.169606 17.8908351,285.897934 C17.8908351,263.327044 25.366754,240.756155 33.9106614,220.334874 C52.0664645,173.043486 78.7661751,131.12612 120.417724,101.031601 C148.185422,80.6103196 180.225075,68.7874727 214.400705,63.4134514 C217.60467,63.4134514 221.876624,62.3386472 224.0126,63.4134514 C233.624496,69.862277 244.30438,66.6378642 250.712311,60.1890386 C259.256218,52.6654088 259.256218,41.9173662 254.984265,32.2441278 C254.984265,31.1693236 254.984265,31.1693236 254.984265,30.0945193 C260.324207,27.9449108 264.59616,32.2441278 268.868114,34.3937364 C285.955929,42.9921705 289.159894,40.8425619 291.295871,22.5708895 C296.635813,24.720498 295.567825,30.0945193 296.635813,33.3189321 C301.975755,50.5158003 311.587651,56.9646259 328.675466,53.7402131 C332.947419,52.6654088 338.287361,52.6654088 342.559315,51.5906045 C346.831269,49.440996 352.171211,52.6654088 356.443165,49.440996 C387.414829,41.9173662 416.250516,48.3661918 445.086204,61.2638429 C485.669764,78.4607111 513.437463,109.630035 534.797231,147.248184 C557.224988,185.941137 571.108837,227.858503 579.652745,271.925478 C587.128664,311.693236 579.652745,350.386189 568.97286,389.079143 C559.360965,424.547683 547.613092,460.016224 525.185335,490.110743 C492.077694,535.252522 458.970053,546.000565 407.706609,534.177718 C382.074887,527.728892 358.579141,528.803697 334.015408,534.177718 C315.859605,537.402131 297.703801,542.776152 278.48001,543.850956 C273.140068,546.000565 267.800126,542.776152 262.460184,546.000565 C252.848288,550.299782 242.168404,547.075369 232.556508,546.000565 C234.692485,546.000565 234.692485,543.850956 234.692485,543.850956 C226.148577,543.850956 218.672658,543.850956 211.196739,542.776152 Z" id="Shape" fill="#FFFFFF" fill-rule="nonzero"></path>
                            <path d="M211.196739,542.776152 C170.613179,539.551739 133.233585,524.50448 102.26192,498.709177 C53.134453,457.866615 26.4347424,403.051598 17.8908351,339.638147 C16.8228466,321.366474 16.8228466,304.169606 17.8908351,285.897934 C17.8908351,263.327044 25.366754,240.756155 33.9106614,220.334874 C52.0664645,173.043486 78.7661751,131.12612 120.417724,101.031601 C148.185422,80.6103196 180.225075,68.7874727 214.400705,63.4134514 C217.60467,63.4134514 221.876624,62.3386472 224.0126,63.4134514 C233.624496,69.862277 244.30438,66.6378642 250.712311,60.1890386 C259.256218,52.6654088 259.256218,41.9173662 254.984265,32.2441278 C254.984265,31.1693236 254.984265,31.1693236 254.984265,30.0945193 C260.324207,27.9449108 264.59616,32.2441278 268.868114,34.3937364 C285.955929,42.9921705 289.159894,40.8425619 291.295871,22.5708895 C296.635813,24.720498 295.567825,30.0945193 296.635813,33.3189321 C301.975755,50.5158003 311.587651,56.9646259 328.675466,53.7402131 C332.947419,52.6654088 338.287361,52.6654088 342.559315,51.5906045 C346.831269,49.440996 352.171211,52.6654088 356.443165,49.440996 C387.414829,41.9173662 416.250516,48.3661918 445.086204,61.2638429 C485.669764,78.4607111 513.437463,109.630035 534.797231,147.248184 C557.224988,185.941137 571.108837,227.858503 579.652745,271.925478 C587.128664,311.693236 579.652745,350.386189 568.97286,389.079143 C559.360965,424.547683 547.613092,460.016224 525.185335,490.110743 C492.077694,535.252522 458.970053,546.000565 407.706609,534.177718 C382.074887,527.728892 358.579141,528.803697 334.015408,534.177718 C315.859605,537.402131 297.703801,542.776152 278.48001,543.850956 C273.140068,546.000565 267.800126,542.776152 262.460184,546.000565 C252.848288,550.299782 242.168404,547.075369 232.556508,546.000565 C234.692485,546.000565 234.692485,543.850956 234.692485,543.850956 C226.148577,543.850956 218.672658,543.850956 211.196739,542.776152 Z" id="Shape" fill="#FFEBD8" fill-rule="nonzero"></path>
                            <path d="M16.819041,285.897934 C16.819041,304.169606 16.819041,321.366474 16.819041,339.638147 C12.5470874,321.366474 13.6150758,303.094802 16.819041,285.897934 Z" id="Shape" fill="#E3B98B" fill-rule="nonzero"></path>
                            <path d="M211.192934,542.776152 C220.804829,542.776152 230.416725,542.776152 240.028621,542.776152 C237.892644,547.075369 234.688679,543.850956 231.484714,544.92576 C225.076783,544.92576 217.600864,546.000565 211.192934,542.776152 Z" id="Shape" fill="#E6B78A" fill-rule="nonzero"></path>
                            <path d="M261.388389,544.92576 C265.660343,539.551739 272.068274,543.850956 277.408216,542.776152 C273.136262,546.000565 266.728332,544.92576 261.388389,544.92576 Z" id="Shape" fill="#E2B88F" fill-rule="nonzero"></path>
                            <path d="M355.371371,49.440996 C356.439359,50.5158003 360.711313,50.5158003 356.439359,51.5906045 C352.167405,52.6654088 346.827463,51.5906045 341.487521,51.5906045 C345.759475,49.440996 351.099417,49.440996 355.371371,49.440996 Z" id="Shape" fill="#E8B886" fill-rule="nonzero"></path>
                        </g>
                    </g>
                </g>
                <g id="Group-3" mask="url(#mask-2)">
                    <g transform="translate(0.000000, 1197.000000)">
                        <rect id="Rectangle-5" fill="#E7B9D0" x="0" y="0" width="1200" height="1200"></rect>
                        <g id="Group" stroke-width="1" fill="none" transform="translate(262.000000, 319.000000)">
                            <path d="M332.985675,113.410441 C336.20933,82.3177526 341.582089,56.5858722 341.582089,29.7818301 C341.582089,23.34886 342.656641,16.9158899 345.880296,11.5550815 C350.178503,4.04994968 356.625814,-1.31085873 365.222229,0.833464635 C373.818643,2.977788 377.042299,10.4829198 375.967747,17.9880516 C374.893195,32.9983151 372.744091,48.0085787 370.594988,63.0188423 C368.445884,79.1012675 364.147677,95.1836928 360.924021,112.33828 C384.564161,103.760986 407.129749,97.3280161 428.620785,88.7507227 C481.273823,68.3796507 529.628655,78.0291058 575.834382,105.90531 C630.636524,139.142322 659.649423,190.606083 670.394941,251.719299 C676.842252,283.884149 676.842252,316.049 676.842252,349.286012 C676.842252,371.801407 667.171285,391.100317 657.500319,410.399228 C627.412869,472.584605 584.430796,522.976204 517.808585,548.708085 C463.006443,569.079157 408.204301,564.79051 353.402159,549.780246 C345.880296,547.635923 338.358434,544.419438 332.985675,539.05863 C325.463812,528.337013 317.941949,532.62566 309.345535,535.842145 C222.306839,570.151318 139.56635,566.934833 69.7204829,498.316486 C5.24737467,435.058946 -15.1691096,357.863305 11.6946855,269.946047 C39.6330324,179.884466 97.6588297,115.554765 183.622974,76.9569441 C208.337665,65.1631656 235.201461,67.307489 262.065256,69.4518124 C265.288911,69.4518124 269.587118,71.5961357 272.810774,73.7404591 C291.078154,87.678561 316.867398,90.895046 332.985675,113.410441 Z" id="Shape" fill="#83556C" fill-rule="nonzero"></path>
                            <path d="M355.551262,143.430969 C349.103952,132.709352 352.327607,128.420705 363.073125,126.276382 C383.489609,119.843411 404.980645,113.410441 424.322578,103.760986 C519.957688,60.8745189 615.592799,133.781513 642.456594,203.472023 C660.723975,251.719299 666.096734,302.110898 661.798526,352.502497 C659.649423,383.595186 642.456594,411.471389 624.189213,437.20327 C589.803556,489.739192 544.67238,528.337013 481.273823,540.130791 C441.515407,547.635923 402.831542,544.419438 364.147677,534.769983 C351.253055,531.553498 339.432985,526.192689 334.060226,513.326749 C330.836571,505.821617 326.538364,509.038102 321.165605,511.182426 C296.450913,524.048366 269.587118,531.553498 241.648771,536.914306 C167.504697,548.708085 108.404348,521.904043 62.1986202,466.151635 C2.02371926,392.172479 2.02371926,310.688191 41.782136,229.203903 C72.9441383,164.874202 122.373521,116.626926 188.995733,87.678561 C210.486769,78.0291058 234.126909,79.1012675 257.767048,80.1734292 C259.916152,80.1734292 263.139807,81.2455909 265.288911,82.3177526 C296.450913,99.4723395 324.38926,120.915573 352.327607,142.358807 C352.327607,142.358807 352.327607,142.358807 355.551262,143.430969 Z" id="Shape" fill="#FFFFFF" fill-rule="nonzero"></path>
                            <path d="M355.551262,143.430969 C349.103952,132.709352 352.327607,128.420705 363.073125,126.276382 C383.489609,119.843411 404.980645,113.410441 424.322578,103.760986 C519.957688,60.8745189 615.592799,133.781513 642.456594,203.472023 C660.723975,251.719299 666.096734,302.110898 661.798526,352.502497 C659.649423,383.595186 642.456594,411.471389 624.189213,437.20327 C589.803556,489.739192 544.67238,528.337013 481.273823,540.130791 C441.515407,547.635923 402.831542,544.419438 364.147677,534.769983 C351.253055,531.553498 339.432985,526.192689 334.060226,513.326749 C330.836571,505.821617 326.538364,509.038102 321.165605,511.182426 C296.450913,524.048366 269.587118,531.553498 241.648771,536.914306 C167.504697,548.708085 108.404348,521.904043 62.1986202,466.151635 C2.02371926,392.172479 2.02371926,310.688191 41.782136,229.203903 C72.9441383,164.874202 122.373521,116.626926 188.995733,87.678561 C210.486769,78.0291058 234.126909,79.1012675 257.767048,80.1734292 C259.916152,80.1734292 263.139807,81.2455909 265.288911,82.3177526 C296.450913,99.4723395 324.38926,120.915573 352.327607,142.358807 C352.327607,142.358807 352.327607,142.358807 355.551262,143.430969 Z" id="Shape" fill="#FFE4F1" fill-rule="nonzero"></path>
                            <path d="M358.774918,45.8642553 C359.84947,51.2250637 356.625814,55.5137105 355.551262,59.8023572 C354.476711,53.3693871 354.476711,46.936417 356.625814,40.5034469 C358.774918,41.5756086 356.625814,43.719932 358.774918,45.8642553 Z" id="Shape" fill="#BEBEBE" fill-rule="nonzero"></path>
                            <path d="M353.402159,81.2455909 C351.253055,76.9569441 349.103952,71.5961357 355.551262,65.1631656 C354.476711,71.5961357 353.402159,76.9569441 353.402159,81.2455909 Z" id="Shape" fill="#636363" fill-rule="nonzero"></path>
                            <path d="M358.774918,45.8642553 C357.700366,43.719932 356.625814,41.5756086 355.551262,40.5034469 C355.551262,38.3591235 355.551262,36.2148002 356.625814,30.8539918 C359.84947,37.2869619 358.774918,41.5756086 358.774918,45.8642553 Z" id="Shape" fill="#FBFBFB" fill-rule="nonzero"></path>
                        </g>
                    </g>
                </g>
                <g id="Group-4" mask="url(#mask-2)">
                    <g transform="translate(1199.000000, 1197.000000)">
                        <rect id="Rectangle-5" fill="#D0E7B9" x="0" y="0" width="1200" height="1200"></rect>
                        <g id="Group" stroke-width="1" fill="none" transform="translate(349.000000, 310.000000)">
                            <path d="M365.975733,438.435913 C360.618635,478.998506 360.618635,520.628535 362.761474,561.191128 C363.832894,580.404987 360.618635,581.472424 342.404498,580.404987 C280.262152,575.067804 218.119805,574.000368 155.977458,574.000368 C144.191841,574.000368 142.049001,571.865494 143.120421,560.123691 C146.33468,513.156479 153.834619,466.189266 148.47752,418.154617 C145.26326,392.536137 135.620483,372.254841 117.406346,354.108418 C112.049248,349.838671 107.763568,344.501488 103.477889,339.164305 C94.9065312,328.489938 88.4780126,319.950445 71.3352962,319.950445 C56.3354194,319.950445 46.6926415,308.208642 45.6212217,292.197092 C44.549802,283.657599 41.3355426,279.387853 34.907024,276.185543 C-1.52124823,256.971683 -10.0926064,221.746274 12.4072088,187.588301 C15.6214681,183.318554 14.5500483,180.116244 14.5500483,175.846498 C3.83585063,132.081595 12.4072088,111.800299 54.1925799,81.9120726 C62.7639381,75.5074527 71.3352962,69.1028328 78.8352346,59.495903 C94.9065312,39.2146067 117.406346,37.0797334 142.049001,40.2820433 C150.620359,41.34948 158.120298,43.4843533 162.405977,32.8099868 C165.620236,25.3379302 173.120175,21.0681837 180.620113,21.0681837 C191.334311,21.0681837 198.834249,17.8658737 207.405607,12.5286905 C221.334064,3.98919728 236.333941,1.85432398 251.333818,9.32638052 C255.619497,11.4612538 258.833756,11.4612538 263.119435,9.32638052 C283.476411,-0.280549315 303.833387,-4.55029591 325.261782,9.32638052 C328.476041,11.4612538 334.90456,10.3938172 339.190239,11.4612538 C352.047276,13.5961271 360.618635,20.000747 367.047153,32.8099868 C372.404252,43.4843533 384.18987,50.9564098 397.046907,52.0238465 C413.118203,53.0912831 428.11808,50.9564098 443.117957,59.495903 C464.546352,70.1702695 473.117711,86.1818192 467.760612,109.665425 C466.689192,116.070045 468.832032,120.339792 472.046291,124.609539 C481.689069,137.418778 489.189007,151.295455 488.117587,168.374441 C488.117587,171.576751 489.189007,175.846498 487.046168,176.913934 C476.33197,186.520864 483.831908,192.925484 490.260427,201.464977 C508.474563,224.948584 505.260304,246.297316 481.689069,265.511176 C479.546229,267.646049 477.40339,269.780923 476.33197,271.915796 C469.903451,290.062219 457.046414,300.736586 438.832278,303.938895 C431.33234,305.006332 424.903821,306.073769 418.475302,311.410952 C416.332463,313.545825 412.046784,315.680699 408.832524,314.613262 C394.904067,310.343515 383.11845,321.017882 370.261413,322.085319 C363.832894,322.085319 367.047153,327.422502 367.047153,330.624812 C365.975733,366.917658 365.975733,403.210504 365.975733,438.435913 Z" id="Shape" fill="#6C8355" fill-rule="nonzero"></path>
                            <path d="M347.761597,455.5149 C347.761597,489.672872 345.618758,523.830845 348.833017,557.988818 C349.904437,565.460874 346.690178,566.528311 340.261659,565.460874 C337.0474,564.393438 333.83314,564.393438 329.547461,564.393438 C322.047523,564.393438 318.833263,562.258564 319.904683,553.719071 C320.976103,541.977268 315.619004,531.302902 309.190486,519.561098 C307.047646,533.437775 304.904806,544.112141 303.833387,554.786508 C302.761967,561.191128 300.619127,562.258564 295.262029,562.258564 C252.405238,561.191128 209.548447,557.988818 166.691656,559.056254 C160.263137,559.056254 159.191718,556.921381 159.191718,550.516761 C162.405977,525.965718 163.477397,502.482112 164.548816,477.931069 C165.620236,436.30104 168.834495,392.536137 139.906162,357.310728 C125.977705,340.231742 108.834988,325.287628 95.977951,308.208642 C92.7636917,302.871459 88.4780126,307.141205 84.1923335,307.141205 C67.0496172,309.276079 55.2639997,297.534276 59.5496788,280.455289 C61.6925183,271.915796 58.478259,270.848359 52.0497404,267.646049 C23.1214065,255.904246 13.4786286,243.095007 14.5500483,217.476527 C14.5500483,208.937034 16.6928879,202.532414 22.0499867,196.127794 C29.5499251,188.655737 29.5499251,180.116244 27.4070856,170.509314 C17.7643077,136.351342 24.1928263,120.339792 57.4068392,95.788749 C69.1924567,87.2492559 80.9780742,78.7097627 90.6208521,66.9679595 C104.549309,49.8889732 124.906285,53.0912831 144.191841,56.2935931 C151.691779,57.3610297 158.120298,60.5633396 165.620236,62.6982129 C166.691656,57.3610297 167.763076,50.9564098 169.905915,45.6192266 C173.120175,37.0797334 180.620113,32.8099868 189.191471,37.0797334 C194.54857,39.2146067 197.762829,39.2146067 200.977089,34.9448601 C215.976965,21.0681837 230.976842,13.5961271 250.262398,26.4053669 C255.619497,30.6751135 260.976596,26.4053669 265.262275,23.203057 C282.404991,14.6635638 299.547708,9.32638052 316.690424,23.203057 C320.976103,26.4053669 328.476041,25.3379302 333.83314,26.4053669 C344.547338,27.4728035 350.975857,32.8099868 349.904437,43.4843533 C349.904437,49.8889732 350.975857,50.9564098 357.404375,52.0238465 C365.975733,53.0912831 373.475672,56.2935931 376.689931,66.9679595 C377.761351,71.2377061 378.832771,71.2377061 384.18987,70.1702695 C402.404006,63.7656496 420.618142,64.8330862 438.832278,74.4400161 C451.689315,81.9120726 457.046414,92.5864391 452.760735,106.463116 C449.546476,116.070045 451.689315,123.542102 458.117834,131.014158 C463.474933,137.418778 467.760612,143.823398 469.903451,152.362891 C473.117711,163.037258 475.26055,172.644188 464.546352,181.183681 C458.117834,185.453428 459.189254,189.723174 464.546352,195.060357 C470.974871,201.464977 476.33197,207.869597 480.617649,216.40909 C489.189007,231.353203 485.974748,243.095007 472.046291,252.701936 C465.617772,256.971683 462.403513,261.24143 460.260673,268.713486 C458.117834,278.320416 448.475056,285.792472 438.832278,287.927346 C428.11808,290.062219 417.403882,291.129656 407.761105,298.601712 C402.404006,302.871459 394.904067,298.601712 389.546968,298.601712 C386.332709,298.601712 379.90419,296.466839 379.90419,297.534276 C375.618511,310.343515 365.975733,303.938895 358.475795,302.871459 C349.904437,301.804022 350.975857,307.141205 350.975857,312.478389 C350.975857,344.501488 350.975857,377.592024 350.975857,409.615124 C350.975857,414.952307 350.975857,420.28949 348.833017,425.626673 C344.547338,436.30104 346.690178,445.90797 347.761597,455.5149 Z" id="Shape" fill="#FFFFFF" fill-rule="nonzero"></path>
                            <path d="M347.761597,455.5149 C347.761597,489.672872 345.618758,523.830845 348.833017,557.988818 C349.904437,565.460874 346.690178,566.528311 340.261659,565.460874 C337.0474,564.393438 333.83314,564.393438 329.547461,564.393438 C322.047523,564.393438 318.833263,562.258564 319.904683,553.719071 C320.976103,541.977268 315.619004,531.302902 309.190486,519.561098 C307.047646,533.437775 304.904806,544.112141 303.833387,554.786508 C302.761967,561.191128 300.619127,562.258564 295.262029,562.258564 C252.405238,561.191128 209.548447,557.988818 166.691656,559.056254 C160.263137,559.056254 159.191718,556.921381 159.191718,550.516761 C162.405977,525.965718 163.477397,502.482112 164.548816,477.931069 C165.620236,436.30104 168.834495,392.536137 139.906162,357.310728 C125.977705,340.231742 108.834988,325.287628 95.977951,308.208642 C92.7636917,302.871459 88.4780126,307.141205 84.1923335,307.141205 C67.0496172,309.276079 55.2639997,297.534276 59.5496788,280.455289 C61.6925183,271.915796 58.478259,270.848359 52.0497404,267.646049 C23.1214065,255.904246 13.4786286,243.095007 14.5500483,217.476527 C14.5500483,208.937034 16.6928879,202.532414 22.0499867,196.127794 C29.5499251,188.655737 29.5499251,180.116244 27.4070856,170.509314 C17.7643077,136.351342 24.1928263,120.339792 57.4068392,95.788749 C69.1924567,87.2492559 80.9780742,78.7097627 90.6208521,66.9679595 C104.549309,49.8889732 124.906285,53.0912831 144.191841,56.2935931 C151.691779,57.3610297 158.120298,60.5633396 165.620236,62.6982129 C166.691656,57.3610297 167.763076,50.9564098 169.905915,45.6192266 C173.120175,37.0797334 180.620113,32.8099868 189.191471,37.0797334 C194.54857,39.2146067 197.762829,39.2146067 200.977089,34.9448601 C215.976965,21.0681837 230.976842,13.5961271 250.262398,26.4053669 C255.619497,30.6751135 260.976596,26.4053669 265.262275,23.203057 C282.404991,14.6635638 299.547708,9.32638052 316.690424,23.203057 C320.976103,26.4053669 328.476041,25.3379302 333.83314,26.4053669 C344.547338,27.4728035 350.975857,32.8099868 349.904437,43.4843533 C349.904437,49.8889732 350.975857,50.9564098 357.404375,52.0238465 C365.975733,53.0912831 373.475672,56.2935931 376.689931,66.9679595 C377.761351,71.2377061 378.832771,71.2377061 384.18987,70.1702695 C402.404006,63.7656496 420.618142,64.8330862 438.832278,74.4400161 C451.689315,81.9120726 457.046414,92.5864391 452.760735,106.463116 C449.546476,116.070045 451.689315,123.542102 458.117834,131.014158 C463.474933,137.418778 467.760612,143.823398 469.903451,152.362891 C473.117711,163.037258 475.26055,172.644188 464.546352,181.183681 C458.117834,185.453428 459.189254,189.723174 464.546352,195.060357 C470.974871,201.464977 476.33197,207.869597 480.617649,216.40909 C489.189007,231.353203 485.974748,243.095007 472.046291,252.701936 C465.617772,256.971683 462.403513,261.24143 460.260673,268.713486 C458.117834,278.320416 448.475056,285.792472 438.832278,287.927346 C428.11808,290.062219 417.403882,291.129656 407.761105,298.601712 C402.404006,302.871459 394.904067,298.601712 389.546968,298.601712 C386.332709,298.601712 379.90419,296.466839 379.90419,297.534276 C375.618511,310.343515 365.975733,303.938895 358.475795,302.871459 C349.904437,301.804022 350.975857,307.141205 350.975857,312.478389 C350.975857,344.501488 350.975857,377.592024 350.975857,409.615124 C350.975857,414.952307 350.975857,420.28949 348.833017,425.626673 C344.547338,436.30104 346.690178,445.90797 347.761597,455.5149 Z" id="Shape" fill="#ECFFDA" fill-rule="nonzero"></path>
                            <path d="M347.761597,455.5149 C344.547338,445.90797 343.475918,436.30104 348.833017,427.761547 C347.761597,436.30104 347.761597,445.90797 347.761597,455.5149 Z" id="Shape" fill="#D5E3C9" fill-rule="nonzero"></path>
                            <path d="M108.834988,293.264529 C122.763445,293.264529 136.691902,293.264529 149.54894,293.264529 C155.977458,293.264529 157.048878,296.466839 157.048878,301.804022 C154.906038,314.613262 155.977458,327.422502 150.620359,342.366615 C139.906162,321.017882 119.549186,311.410952 108.834988,293.264529 Z" id="Shape" fill="#6C8355" fill-rule="nonzero"></path>
                        </g>
                    </g>
                </g>
            </g>
        </g>
    </g>
</svg>