<?xml version="1.0" encoding="utf-8"?>
<!-- Generator: Adobe Illustrator 19.2.0, SVG Export Plug-In . SVG Version: 6.00 Build 0)  -->
<svg version="1.1" id="Layer_1" xmlns="http://www.w3.org/2000/svg" xmlns:xlink="http://www.w3.org/1999/xlink" x="0px" y="0px"
	 viewBox="0 0 841.9 595.3" style="enable-background:new 0 0 841.9 595.3;" xml:space="preserve">
<g>
	<path d="M317.2,213.5c3.6,0,7.2,0,10.7,0c2.6,0,2.6,0,2.6-2.6c0-1.9-0.1-2-2-2c-7.7,0-15.4,0-23.1,0c-0.3,0-0.8,0.2-1-0.2
		c-0.2-0.4,0.3-0.6,0.5-0.9c3-3,6-6,9-9c2.2-2.2,2.2-2.2,0-4.3c-1-1-1.2-1-2.2,0c-5.2,5.2-10.4,10.4-15.6,15.6c-1,1-1,1.1,0,2.1
		c4.8,4.8,9.7,9.6,14.5,14.5c2.2,2.2,2.2,2.2,4.3,0c1-1,1-1.1,0-2.2c-3.3-3.3-6.5-6.6-9.8-9.9c-0.3-0.3-0.9-0.6-0.7-1
		c0.2-0.5,0.8-0.2,1.2-0.2C309.5,213.5,313.4,213.5,317.2,213.5z"/>
</g>
<g>
	<path d="M250.2,280c-6.2,0-12.3,0-18.5,0c-4.9,0-4.8,0-4.9-4.9c0-1.7,0.6-2.2,2.1-2.4c16-1.8,32.1-3.7,48.1-5.5
		c3.9-0.4,4.8-1.3,4.8-5.2c0-7.2,0-14.3,0-21.5c0-4.9-0.8-5.7-5.6-5.7c-18.1,0-36.2,0-54.2,0c-2.4,0-4-0.4-4.4-3.2
		c-0.3-2.3-1.8-3.4-4.2-3.3c-3.7,0.1-7.3,0-11,0c-2.6,0-4,1.1-4,3.1c-0.1,2.1,1.4,3.2,4.1,3.3c2.1,0,4.2,0.1,6.2,0
		c2.1-0.1,3.1,0.8,3.5,2.9c2.2,10.4,4.5,20.9,6.9,31.2c1,4.2,2.1,8.3-0.9,12.1c-0.2,0.3-0.3,0.8-0.4,1.2c-0.3,1.5,0.1,2.8,1.5,3.3
		c2.3,0.8,1.3,1.5,0.2,2.6c-2.6,2.5-2.5,6.5,0,9c2.3,2.3,6.2,2.3,8.6,0.1c2.6-2.4,2.7-6.3,0.2-9c-0.5-0.6-1.8-0.9-1.3-1.9
		c0.4-0.8,1.5-0.5,2.3-0.5c11.3,0,22.7,0,34,0c0.8,0,1.9-0.2,2.3,0.6c0.4,0.8-0.7,1.2-1.2,1.7c-2,2.2-2.4,5.1-1,7.6
		c1.4,2.5,4.2,3.6,7.1,2.9c4.4-1.1,6.1-6.7,2.9-10.2c-1.3-1.3-2.3-2,0.3-3.1c1.7-0.7,1.8-2.5,0.7-4.1c-0.9-1.2-2.2-1.4-3.6-1.4
		C264.1,280,257.2,280,250.2,280z"/>
</g>
<g>
	<path d="M120.9,376c-19.6,0-35.1-15.6-35.1-35.3c0-19.6,15.7-35.1,35.4-35c19.6,0,35,15.7,35,35.4C156.1,360.4,140.5,376,120.9,376
		z M145.3,357.1c7.4-9,7.7-26.4-3.4-37.4c-11.4-11.4-30.1-11.5-41.7-0.2c-11.2,10.9-11.1,28.3-3.7,37.5c0.7-0.6,0.7-1.5,0.9-2.2
		c1.2-3.3,2.8-6.3,6-8c2.6-1.4,4.9-1.8,7.6,0.4c5.6,4.4,14.4,4.3,20-0.1c2.1-1.7,4-1.7,6.2-0.8c2.7,1.1,4.6,3,5.8,5.6
		C144,353.6,144.6,355.3,145.3,357.1z"/>
	<path d="M136.2,333.2c0,8.6-6.5,15.2-15.1,15.2c-8.6,0-15.2-6.5-15.2-15.1c0-8.6,6.5-15.2,15.1-15.2
		C129.6,318.1,136.2,324.6,136.2,333.2z"/>
</g>
<g>
	<path d="M290.2,367.4c0.2,2.4-0.5,5.1-1.7,7.6c-4.3,9.3-8.7,18.5-13.1,27.8c-1.1,2.3-2.5,4.2-5.3,4.2c-3,0-4.4-1.9-5.5-4.3
		c-4.2-9-8.5-18.1-12.8-27.1c-3.7-7.8-2.4-16.3,3.5-22.7c5.6-6.1,14.6-8,22.3-4.9C285.3,351.1,290.2,358.5,290.2,367.4z
		 M279.7,366.8c0-5.3-4.4-9.7-9.7-9.7c-5.3,0-9.7,4.4-9.7,9.7c0,5.3,4.4,9.7,9.7,9.7C275.2,376.5,279.7,372.1,279.7,366.8z"/>
</g>
<g>
	<path d="M400.9,304.7c0,9.9,0,19.8,0,29.7c0,4.5-1.8,6.3-6.4,6.3c-8,0.1-9-0.9-9-8.8c0-4.3,0-8.7,0-13c0-3.2,0-3.2-3.3-3.2
		c-1.4,0-2.8,0-4.2,0c-1.7,0-2.4-0.8-2.4-2.4c0-10.5-0.1-21,0.1-31.5c0.1-5.9,5.6-11.2,11.6-11.4c3.3-0.1,6.7-0.1,10,0
		c2.9,0,3.7,0.8,3.7,3.8C400.9,284.4,400.9,294.6,400.9,304.7z"/>
	<path d="M350.5,321.2c0-4.6,0-9.2,0-13.7c0-1.3-0.3-2.1-1.5-2.9c-2.4-1.5-3.6-3.8-3.5-6.7c0-7.9,0-15.8,0-23.7
		c0-1.8,0.4-3.5,2.6-3.5c2.3-0.1,2.8,1.6,2.8,3.6c0,4.3,0,8.7,0,13c0,0.7,0,1.5,0.1,2.2c0.3,1.1,0.9,2,2.2,2.1c1.3,0,1.9-0.9,2.2-2
		c0.2-0.7,0.1-1.5,0.1-2.2c0-4.1,0-8.2,0-12.2c0-3.2,0.8-4.6,2.7-4.4c2.7,0.2,2.6,2.3,2.6,4.3c0,4.2,0,8.3,0,12.5
		c0,0.8,0,1.7,0.3,2.5c0.3,0.9,0.9,1.6,2,1.7c1.2,0,1.9-0.7,2.2-1.7c0.2-0.8,0.2-1.6,0.3-2.5c0-4.4,0-8.8,0-13.2
		c0-1.9,0.5-3.4,2.7-3.5c2.2,0,2.7,1.6,2.7,3.4c0,8.1,0,16.2,0,24.2c0,2.6-1.1,4.8-3.2,6.1c-1.6,1-1.8,2.2-1.8,3.7
		c0,8.7,0,17.5,0,26.2c0,4.7-1.8,6.5-6.5,6.5c-8,0-8.9-0.9-8.9-8.9C350.5,328.3,350.5,324.8,350.5,321.2z"/>
</g>
<g>
	<path d="M375.3,435.2c-6.9,0-13.8,0-20.7,0c-3.7,0-5.2-1.4-5.2-5.1c0-12.7,0-25.3,0-38c0-3.8,1.4-5.2,5.3-5.2
		c2.1,0,2.7-0.6,2.7-2.7c0-3.6,2.2-5.3,6.1-5.3c3.9,0,6.2,1.7,6.1,5.2c0,2.2,0.7,3,2.9,2.8c2.2-0.2,4.3-0.1,6.5,0
		c1.7,0.1,2.5-0.5,2.3-2.3c-0.2-2.4,0.8-4.4,3-5.2c2.4-0.9,4.9-1,7.2,0.5c1.7,1.1,2.2,2.9,2.1,4.8c-0.1,1.6,0.6,2.2,2.2,2.2
		c4.9,0.1,5.8,1.2,5.8,5.9c0,12.2,0,24.5,0,36.7c0,4.4-1.3,5.6-5.7,5.6C389.1,435.2,382.2,435.2,375.3,435.2z M369.3,419.8
		c5.8-0.1,5,0.7,5-5c0-5.2,0.6-4.7-4.6-4.7c-5.8,0-5-0.8-5,5C364.7,420.4,364.1,419.8,369.3,419.8z M381.5,410.2
		c-5.6,0.1-4.8-0.7-4.9,4.9c0,5.4-0.6,4.7,4.8,4.7c5.6,0,4.8,0.7,4.8-4.9C386.3,409.5,387,410.2,381.5,410.2z M381.3,430.8
		c1.2,0,2.3,0,3.5,0c0.9,0,1.5-0.4,1.5-1.3c-0.1-2.3,0.9-5-0.4-6.8c-1.1-1.5-3.6-0.4-5.4-0.6c-0.7-0.1-1.3,0-2,0
		c-1.3-0.1-1.8,0.6-1.8,1.8c0,0.7,0,1.5,0,2.2C376.7,431.4,376.1,430.8,381.3,430.8z M369.4,430.8c0.3,0,0.7,0,1,0
		c3.9,0,3.9,0,3.9-3.9c0-5.5,0.7-4.8-5-4.8c-5.2,0-4.7-0.6-4.7,4.4C364.7,431.5,364.2,430.8,369.4,430.8z M369.4,407.8
		c0.3,0,0.7,0,1,0c3.9,0,3.9,0,3.9-3.9c0-5.5,0.7-4.8-5-4.8c-5.2,0-4.7-0.6-4.7,4.3C364.7,408.5,364.2,407.8,369.4,407.8z
		 M381.7,399.2c-0.3,0-0.7,0-1,0c-4.1,0-4.1,0-4.1,4c0,5.3-0.6,4.7,4.8,4.7c5.4,0,4.8,0.7,4.8-4.4
		C386.3,398.6,386.7,399.2,381.7,399.2z M362.3,415c0-0.4,0-0.8,0-1.2c0-3.6,0-3.7-3.7-3.6c-5.7,0.1-5-0.7-5,5
		c0,5.1-0.6,4.6,4.4,4.6C363,419.8,362.3,420.3,362.3,415z M397.3,415c0-0.5,0-1,0-1.5c0-3.3,0-3.4-3.4-3.3
		c-6.1,0.1-5.1-0.8-5.2,5.3c0,4.3,0,4.4,3.9,4.3C398,419.8,397.3,420.5,397.3,415z M397.3,426.5c0-4.3,0-4.3-3.7-4.3
		c-5.2,0-4.9-0.7-4.9,3.8c0,5.1-0.6,4.8,4,4.8C397.8,430.8,397.3,431.4,397.3,426.5z M362.3,426.7c0-4.5,0-4.6-3.5-4.5
		c-5.4,0-5.2-0.7-5.1,3.6c0,5.3-0.7,5,3.7,5C362.8,430.8,362.3,431.5,362.3,426.7z M397.3,403.5c0-4.3,0-4.4-3.7-4.3
		c-5.2,0-5-0.7-5,3.8c0,5.2-0.7,4.8,3.9,4.8C397.8,407.8,397.3,408.4,397.3,403.5z M362.3,403.7c0-5,0.5-4.4-4.5-4.5
		c-0.8,0-1.7,0-2.5,0c-1.2,0-1.5,0.6-1.6,1.7c-0.7,6.7-0.2,7.3,6.5,7c0.1,0,0.2,0,0.2,0c1.4,0.1,2-0.6,1.9-1.9
		C362.3,405.2,362.3,404.4,362.3,403.7z M389.3,388.6C389.3,388.6,389.3,388.6,389.3,388.6c0-1.2,0-2.3,0-3.5c0-1.2-0.6-1.9-1.9-1.8
		c-1.1,0-1.7,0.7-1.7,1.7c0,2.3,0,4.6,0,7c0,1.2,0.6,1.9,1.9,1.8c1.2,0,1.7-0.9,1.7-2C389.3,390.7,389.3,389.6,389.3,388.6z
		 M361.7,388.6c0,1.2,0,2.3,0,3.5c0.1,1.1,0.7,1.7,1.8,1.7c1.1,0,1.8-0.6,1.8-1.6c0.1-2.4,0.1-4.8,0-7.2c0-1.1-0.7-1.7-1.7-1.7
		c-1.1,0-1.7,0.6-1.8,1.6C361.7,386.1,361.7,387.4,361.7,388.6z"/>
</g>
<g>
	<path d="M163,499.3c-8.3,0-16.6-0.1-24.9,0c-5.1,0.1-8.6-2.2-11.2-6.3c-1.8-2.8-2.7-5.9-2.7-9.3c-0.1-7.2,0.5-14.3,2.9-21.2
		c0.6-1.9,1.5-3.6,2.4-5.4c1.5-2.7,3.6-4.6,6.1-6.2c2.4-1.5,5-2.1,7.8-2.2c0.6,0,1,0.2,1.5,0.6c4.2,4,9.1,6.3,14.8,6.9
		c6.4,0.7,12.5-0.5,17.9-4.1c1.2-0.8,2.4-1.6,3.4-2.7c0.5-0.6,1.1-0.8,1.9-0.7c1,0,1.9,0.4,2.9,0.3c1,0,1.7,0.3,2.5,0.7
		c5.4,2.5,8.5,6.8,10.4,12.2c1.2,3.4,2,7,2.6,10.6c0.3,1.8,0.5,3.7,0.5,5.5c0,3.4,0.4,6.8-0.6,10.1c-1.1,3.7-3,6.7-6.1,9
		c-1.7,1.3-3.7,1.9-5.9,1.9C180.5,499.3,171.8,499.3,163,499.3z"/>
	<path d="M163.5,406.2c2.4-0.1,5.1,0.3,7.8,1.4c8.3,3.4,13.5,9.5,14.8,18.5c1,6.6-0.5,12.6-4.7,17.8c-5.4,6.6-12.4,9.8-21,8.7
		c-9.8-1.2-16.4-6.7-19.5-15.9c-2.4-7.1-1.4-14.1,2.9-20.4c1.2-1.7,2.6-3.3,4.2-4.6c0.2-0.1,0.4-0.3,0.4-0.5
		c-0.1-1.2,0.9-1.1,1.6-1.3c0.3-0.1,0.6-0.1,0.9-0.3C154.6,407.2,158.6,406.1,163.5,406.2z"/>
</g>
<g>
	<path d="M444.3,207.8c2,0,4-0.1,6,0c2,0.1,2.9-0.5,2.8-2.6c-0.2-2.1,0-4.2,0-6.2c0-1.4,0-2.8,1.5-3.4c1.6-0.7,2.7,0.3,3.7,1.3
		c4.4,4.4,8.8,8.8,13.3,13.2c1.6,1.6,3.2,3.2,4.7,4.8c1.5,1.5,1.4,3.1-0.1,4.6c-6.1,6.1-12.2,12.2-18.4,18.4
		c-0.8,0.8-1.8,1.6-3.1,1.1c-1.4-0.5-1.7-1.7-1.7-3c0-2.1-0.1-4.2,0-6.2c0.2-2.2-0.5-3.1-2.9-3c-3.8,0.2-7.7,0.1-11.5,0
		c-3.1,0-4-1-4.1-4c0-3.7,0-7.3,0-11c0-2.9,0.9-3.7,3.7-3.8C440.3,207.8,442.3,207.8,444.3,207.8z"/>
	<path d="M421,217c0-4,0-8,0-12c0-6.3,3.9-10.6,10.2-11c3.5-0.2,7-0.1,10.5-0.1c1.8,0,2.7,0.9,2.7,2.8c-0.1,1.9-1.1,2.4-2.8,2.4
		c-3.2,0-6.3,0-9.5,0c-3.8,0.1-5.9,2-5.9,5.9c-0.1,8.1-0.1,16.1,0,24.2c0,4,1.8,5.7,5.9,5.8c3.2,0.1,6.3,0,9.5,0.1
		c1.7,0,2.9,0.6,2.8,2.6c-0.1,2-1.2,2.5-2.9,2.5c-3.5-0.1-7,0-10.5,0c-5.4-0.1-9.8-4.5-9.9-9.9C420.9,225.8,421,221.4,421,217
		C421,217,421,217,421,217z"/>
</g>
<g>
	<path d="M527.2,400.6c0,7.2,0,7.2-7.2,7.2c-7,0-7.1-0.1-7.1-7.1c0-7.4,0-7.4,7.5-7.4C527.2,393.2,527.2,393.2,527.2,400.6z"/>
	<path d="M515.5,371c-7.1,0-7.1,0-7.1-7.1c0-7.2,0-7.2,7.2-7.2c7.1,0,7.1,0,7.1,7.2C522.6,371,522.6,371,515.5,371z"/>
	<path d="M538.4,375.1c7.2,0,7.2,0,7.2,7.3c0,7,0,6.9-6.9,7c-8.2,0.1-7.3-0.4-7.3-7.4C531.3,375.1,531.3,375.1,538.4,375.1z"/>
	<path d="M538.9,366.4c-4.4,0-8.8-0.1-13.2,0c-1.9,0-2.4-0.7-2.4-2.5c0-1.9,0.5-2.8,2.5-2.7c8.8,0.1,17.6,0.1,26.4,0
		c2.1,0,2.5,1,2.5,2.8c0,1.9-0.8,2.5-2.5,2.4C547.7,366.4,543.3,366.4,538.9,366.4z"/>
	<path d="M515,384.9c-4.4,0-8.8-0.1-13.2,0c-2,0-2.5-0.9-2.5-2.7c0-1.8,0.6-2.5,2.4-2.5c8.8,0.1,17.6,0.1,26.4,0
		c1.8,0,2.5,0.6,2.5,2.5c0,1.8-0.4,2.8-2.5,2.8C523.8,384.8,519.4,384.9,515,384.9z"/>
	<path d="M541.1,402.9c-3.7,0-7.3-0.1-11,0c-1.8,0-2.3-0.7-2.3-2.4c0-1.6,0.2-2.8,2.2-2.8c7.5,0,15,0,22.5,0c2,0,2.2,1.2,2.2,2.8
		c0,1.7-0.6,2.4-2.3,2.3C548.6,402.9,544.8,402.9,541.1,402.9z"/>
	<path d="M505.7,403c-1.2,0-2.3-0.1-3.5,0c-1.8,0.1-3-0.1-3-2.5c0-2.2,0.9-2.7,2.8-2.7c2.7,0.1,5.3,0.1,8,0c1.9,0,2.4,1,2.4,2.7
		c0,1.8-0.6,2.6-2.5,2.5C508.6,402.9,507.1,403,505.7,403z"/>
	<path d="M550.5,379.6c4.1,0,4.3,0.3,4.2,3.3c-0.1,2-1.5,2.2-2.7,1.9c-2-0.5-5,1.8-5.9-1.7C545.4,380.1,546.2,379.6,550.5,379.6z"/>
	<path d="M503.4,366.4c-0.6,0-1.2-0.1-1.7,0c-1.9,0.2-2.4-0.7-2.4-2.5c0-1.7,0.3-2.8,2.3-2.7c1.2,0.1,2.5,0.1,3.7,0
		c1.9-0.1,2.4,0.8,2.4,2.6c0,1.9-0.5,2.9-2.5,2.6C504.6,366.4,504,366.4,503.4,366.4z"/>
</g>
<g>
	<path d="M544.7,304.5c-4.7-0.2-10.6,0.5-16.4-0.4c-4.5-0.6-7.5-3.6-7.8-8.1c-0.4-5.4,0.4-10.6,2.8-15.6c1.2-2.5,2.9-4.4,5.6-5.5
		c2.4-1,4.6-1,6.9,0.6c6.8,4.7,13.8,4.8,20.4-0.1c3.2-2.4,9.3-0.4,11.8,4.1c2.1,3.7,3,7.8,3.2,12c0.6,9.7-2.7,13.1-12.4,13.1
		C554.5,304.5,550.1,304.5,544.7,304.5z"/>
	<path d="M559.8,263.2c0,7.6-6.3,13.8-13.9,13.9c-7.6,0-14-6.4-13.9-14.1c0-7.7,6.5-14.1,14-14C553.7,249.1,559.8,255.4,559.8,263.2
		z"/>
	<path d="M580.3,268.3c0.2,6.9-5.3,10.8-11.6,8.6c-0.5-0.2-1-0.6-1.4-1c-1.9-1.8-4-2.9-6.6-3.3c-1.3-0.2-1.8-0.7-1.1-2
		c1.5-2.6,2.1-5.4,1.9-8.4c-0.1-1.3,0.5-1.8,1.8-1.5c3.9,0.8,7.4-0.1,10.8-1.9c2.2-1.1,3.7-0.5,4.8,1.9
		C580.1,263.3,580.4,265.9,580.3,268.3z"/>
	<path d="M511.4,269.3c0-3.1,0.2-5.8,1.3-8.3c1.1-2.6,2.6-3.2,5.1-1.9c3.3,1.6,6.7,2.5,10.4,1.8c1.6-0.3,2.1,0.2,2,1.8
		c-0.2,2.8,0.5,5.4,1.9,7.9c0.7,1.3,0.4,2-1.1,2.2c-2.1,0.3-4.1,1-5.6,2.5c-3.5,3.3-7.3,2.1-10.9,0.8
		C511.2,274.8,511.3,271.7,511.4,269.3z"/>
	<path d="M575.8,249.2c0,5.3-4,9.4-9.2,9.5c-5.3,0-9.6-4.2-9.6-9.4c0-5,4.4-9.4,9.4-9.4C571.6,239.9,575.7,244,575.8,249.2z"/>
	<path d="M534.7,249.3c0,5.2-4.2,9.4-9.4,9.4c-5.2,0-9.4-4.2-9.4-9.4c0-5.2,4.2-9.4,9.4-9.4C530.4,239.9,534.7,244.2,534.7,249.3z"
		/>
</g>
<g>
	<path d="M503.6,465.8c-5.2,0-10.5,0-15.7,0c-3.1,0-3.4-0.5-3.4-4c0-3.2,0.3-3.5,3.4-3.6c10.6,0,21.1,0,31.7,0c3,0,3.2,0.3,3.2,3.6
		c0,3.7-0.2,3.9-3.1,4C514.2,465.8,508.9,465.8,503.6,465.8z"/>
	<path d="M503.8,486.4c-5.4,0-10.8,0-16.2,0c-2.8,0-3.1-0.4-3.1-3.5c0-3.5,0.3-4,3.2-4c10.7,0,21.5,0,32.2,0c2.1,0,3.1,0.8,2.9,3
		c-0.1,0.7-0.1,1.3,0,2c0.2,2-0.9,2.7-2.7,2.7C514.6,486.3,509.2,486.4,503.8,486.4z"/>
	<path d="M503.5,468.6c5.2,0,10.5,0,15.7,0c3.4,0,3.4,0.1,3.4,3.6c0,0.4,0,0.8,0,1.2c0.1,1.8-0.6,2.5-2.5,2.5c-11.1,0-22.1,0-33.2,0
		c-1.8,0-2.6-0.8-2.5-2.6c0-0.7,0-1.3,0-2c-0.1-2,0.8-2.8,2.8-2.8C492.7,468.7,498.1,468.6,503.5,468.6z"/>
	<path d="M503.5,496.5c-5.4,0-10.8-0.1-16.2,0c-2.8,0.1-2.9-1.5-2.9-3.5c0-2-0.1-3.9,2.8-3.8c10.9,0.1,21.8,0.1,32.7,0
		c2.1,0,2.9,0.8,2.7,2.8c0,0.5-0.1,1,0,1.5c0.3,2.2-0.6,3.1-3,3.1C514.3,496.4,508.9,496.5,503.5,496.5z"/>
	<path d="M474.3,462c0-3.6,0.2-3.8,3.8-3.8c3.3,0,3.5,0.3,3.5,3.8c0,3.4-0.4,3.8-3.9,3.8C474.5,465.8,474.3,465.6,474.3,462z"/>
	<path d="M481.6,482.6c0,3.5-0.3,3.8-3.6,3.8c-3.6,0-3.7-0.2-3.7-3.8c0-3.6,0.2-3.8,3.5-3.8C481.3,478.8,481.6,479.1,481.6,482.6z"
		/>
	<path d="M474.3,472.3c0-3.6,0-3.7,3.6-3.7c3.7,0,3.7,0.1,3.7,3.8c0,3.4-0.1,3.5-3.8,3.5C474.3,475.9,474.3,475.9,474.3,472.3z"/>
	<path d="M478,496.5c-3.6,0-3.6,0-3.6-3.6c0-3.7,0.1-3.7,3.5-3.7c3.6,0,3.8,0.2,3.8,3.8C481.6,496.4,481.6,496.5,478,496.5z"/>
</g>
</svg>
